<?xml version="1.0" encoding="utf-8"?>
<!-- Svg Vector Icons : http://www.onlinewebfonts.com/icon -->
<!DOCTYPE svg PUBLIC "-//W3C//DTD SVG 1.1//EN" "http://www.w3.org/Graphics/SVG/1.1/DTD/svg11.dtd">
<svg version="1.1" xmlns="http://www.w3.org/2000/svg" xmlns:xlink="http://www.w3.org/1999/xlink" x="0px" y="0px" viewBox="0 0 256 256" enable-background="new 0 0 256 256" xml:space="preserve">
<metadata> Svg Vector Icons : http://www.onlinewebfonts.com/icon </metadata>
<g><g><path fill="#000000" d="M31.1,132.2v-59c0-2.3-1.9-4.2-4.2-4.2c-2.3,0-4.2,1.9-4.2,4.2v59c0,2.3,1.9,4.2,4.2,4.2C29.2,136.4,31.1,134.6,31.1,132.2z"/><path fill="#000000" d="M241.8,85.9c-2.3,0-4.2,1.9-4.2,4.2v25.3c0,2.3,1.9,4.2,4.2,4.2c2.3,0,4.2-1.9,4.2-4.2V90C246,87.8,244.1,85.9,241.8,85.9z"/><path fill="#000000" d="M18.4,115.4V90c0-2.3-1.9-4.2-4.2-4.2c-2.3,0-4.2,1.9-4.2,4.2v25.3c0,2.3,1.9,4.2,4.2,4.2C16.6,119.6,18.4,117.7,18.4,115.4z"/><path fill="#000000" d="M233.4,132.2v-59c0-2.3-1.9-4.2-4.2-4.2s-4.2,1.9-4.2,4.2v59c0,2.3,1.9,4.2,4.2,4.2S233.4,134.6,233.4,132.2z"/><path fill="#000000" d="M170.1,128c14,0,25.3-11.3,25.3-25.3s-11.3-25.3-25.3-25.3s-25.3,11.3-25.3,25.3S156.2,128,170.1,128z M170.1,85.9c9.3,0,16.9,7.5,16.9,16.9s-7.5,16.9-16.9,16.9c-9.3,0-16.9-7.5-16.9-16.9S160.8,85.9,170.1,85.9z"/><path fill="#000000" d="M85.9,128c14,0,25.3-11.3,25.3-25.3S99.8,77.4,85.9,77.4c-14,0-25.3,11.3-25.3,25.3S71.9,128,85.9,128z M85.9,85.9c9.3,0,16.9,7.5,16.9,16.9s-7.5,16.9-16.9,16.9c-9.3,0-16.9-7.5-16.9-16.9S76.5,85.9,85.9,85.9z"/><path fill="#000000" d="M153.3,10h-50.6c-4.6,0-8.4,3.8-8.4,8.5v16.8H43.7c-4.7,0-8.5,3.8-8.5,8.4v118c0,4.7,3.8,8.4,8.5,8.4h50.5V187H77.4c-4.6,0-8.4,3.8-8.4,8.5v42.1c0,4.7,3.8,8.5,8.4,8.5h101.2c4.6,0,8.4-3.8,8.4-8.5v-42.1c0-4.7-3.8-8.5-8.4-8.5h-16.9v-16.9h50.5c4.7,0,8.5-3.8,8.5-8.4v-118c0-4.7-3.8-8.4-8.5-8.4h-50.5V18.5C161.7,13.7,158,10,153.3,10z M102.7,18.4h50.6v16.9h-50.6V18.4z M178.6,195.4v42.1H77.4v-42.1h25.3v-25.3h50.6v25.3H178.6z M203.9,43.7c4.6,0,8.4,3.8,8.4,8.4v101.2c0,4.6-3.8,8.4-8.4,8.4H52.1c-4.6,0-8.4-3.8-8.4-8.4V52.1c0-4.6,3.8-8.4,8.4-8.4H203.9L203.9,43.7z"/></g></g>
</svg>